<svg width="135" height="60" viewBox="0 0 135 60" fill="none" xmlns="http://www.w3.org/2000/svg">
<path d="M38.0213 24.32C37.0826 24.32 36.1439 24.2453 35.2053 24.096C34.2666 23.968 33.3813 23.7653 32.5493 23.488C31.7173 23.1893 30.9706 22.8267 30.3093 22.4C29.9253 22.144 29.6586 21.8347 29.5093 21.472C29.3599 21.1093 29.3066 20.7573 29.3493 20.416C29.4133 20.0533 29.5519 19.744 29.7653 19.488C29.9999 19.2107 30.2879 19.04 30.6293 18.976C30.9706 18.912 31.3439 19.008 31.7493 19.264C32.6879 19.8187 33.6799 20.224 34.7253 20.48C35.7706 20.736 36.8693 20.864 38.0213 20.864C39.7066 20.864 40.9333 20.5867 41.7013 20.032C42.4693 19.456 42.8533 18.72 42.8533 17.824C42.8533 17.0773 42.5759 16.4907 42.0213 16.064C41.4879 15.6373 40.5599 15.2853 39.2373 15.008L35.7173 14.272C33.6906 13.8453 32.1759 13.1307 31.1733 12.128C30.1919 11.104 29.7013 9.76 29.7013 8.096C29.7013 7.05067 29.9146 6.10133 30.3413 5.248C30.7679 4.39467 31.3653 3.65867 32.1333 3.04C32.9226 2.42133 33.8506 1.952 34.9173 1.632C36.0053 1.29067 37.1999 1.12 38.5013 1.12C39.7813 1.12 40.9973 1.28 42.1493 1.6C43.3013 1.92 44.3359 2.38933 45.2533 3.008C45.5946 3.24267 45.8186 3.53067 45.9253 3.872C46.0533 4.21333 46.0853 4.55467 46.0213 4.896C45.9573 5.216 45.8079 5.49333 45.5733 5.728C45.3386 5.96267 45.0399 6.10133 44.6772 6.144C44.3359 6.18667 43.9413 6.08 43.4933 5.824C42.7039 5.376 41.9039 5.056 41.0933 4.864C40.2826 4.672 39.4079 4.576 38.4693 4.576C37.4879 4.576 36.6453 4.71467 35.9413 4.992C35.2373 5.26933 34.6933 5.664 34.3093 6.176C33.9466 6.66667 33.7653 7.25333 33.7653 7.936C33.7653 8.704 34.0213 9.32267 34.5333 9.792C35.0453 10.24 35.9199 10.592 37.1573 10.848L40.6453 11.584C42.7573 12.032 44.3253 12.736 45.3493 13.696C46.3946 14.656 46.9173 15.936 46.9173 17.536C46.9173 18.56 46.7039 19.488 46.2773 20.32C45.8719 21.152 45.2746 21.8667 44.4853 22.464C43.7173 23.0613 42.7893 23.52 41.7013 23.84C40.6133 24.16 39.3866 24.32 38.0213 24.32ZM55.8468 24.256C55.3134 24.256 54.8548 24.128 54.4708 23.872C54.0868 23.5947 53.7774 23.168 53.5428 22.592L48.9028 10.752C48.7108 10.24 48.6468 9.792 48.7108 9.408C48.7961 9.00267 48.9988 8.68267 49.3188 8.448C49.6388 8.21333 50.0654 8.096 50.5988 8.096C51.0681 8.096 51.4521 8.21333 51.7508 8.448C52.0494 8.66133 52.3054 9.07733 52.5188 9.696L56.3908 20.352H55.6548L59.6548 9.44C59.8254 8.97067 60.0494 8.62933 60.3268 8.416C60.6254 8.20267 61.0094 8.096 61.4788 8.096C61.9481 8.096 62.3321 8.21333 62.6308 8.448C62.9294 8.66133 63.1534 8.992 63.3028 9.44L67.2388 20.352H66.5668L70.4708 9.6C70.6841 9.024 70.9508 8.62933 71.2708 8.416C71.6121 8.20267 71.9854 8.096 72.3908 8.096C72.9028 8.096 73.2974 8.224 73.5748 8.48C73.8521 8.736 74.0121 9.06667 74.0548 9.472C74.0974 9.856 74.0228 10.2827 73.8308 10.752L69.2228 22.592C69.0094 23.1467 68.7001 23.5627 68.2948 23.84C67.9108 24.1173 67.4521 24.256 66.9188 24.256C66.3854 24.256 65.9161 24.1173 65.5108 23.84C65.1268 23.5627 64.8281 23.1467 64.6147 22.592L60.4228 11.488H62.2468L58.1508 22.56C57.9374 23.136 57.6388 23.5627 57.2548 23.84C56.8708 24.1173 56.4014 24.256 55.8468 24.256ZM79.064 24.224C78.424 24.224 77.9333 24.032 77.592 23.648C77.2507 23.264 77.08 22.7307 77.08 22.048V10.304C77.08 9.6 77.2507 9.06667 77.592 8.704C77.9333 8.32 78.424 8.128 79.064 8.128C79.704 8.128 80.1947 8.32 80.536 8.704C80.8987 9.06667 81.08 9.6 81.08 10.304V22.048C81.08 22.7307 80.9093 23.264 80.568 23.648C80.2267 24.032 79.7253 24.224 79.064 24.224ZM79.064 5.152C78.3173 5.152 77.7307 4.97067 77.304 4.608C76.8987 4.224 76.696 3.70133 76.696 3.04C76.696 2.35733 76.8987 1.83467 77.304 1.472C77.7307 1.10933 78.3173 0.927999 79.064 0.927999C79.832 0.927999 80.4187 1.10933 80.824 1.472C81.2293 1.83467 81.432 2.35733 81.432 3.04C81.432 3.70133 81.2293 4.224 80.824 4.608C80.4187 4.97067 79.832 5.152 79.064 5.152ZM88.3083 24.256C87.6683 24.256 87.1669 24.0853 86.8043 23.744C86.4629 23.3813 86.2923 22.8693 86.2923 22.208V11.36H84.8203C84.3083 11.36 83.9136 11.232 83.6363 10.976C83.3589 10.6987 83.2203 10.3253 83.2203 9.856C83.2203 9.36533 83.3589 8.992 83.6363 8.736C83.9136 8.48 84.3083 8.352 84.8203 8.352H87.4443L86.2923 9.408V8.32C86.2923 6.12267 86.8469 4.48 87.9563 3.392C89.0656 2.28267 90.6656 1.632 92.7563 1.44L93.8443 1.344C94.2709 1.30133 94.6123 1.376 94.8683 1.568C95.1243 1.73867 95.2949 1.97333 95.3803 2.272C95.4656 2.54933 95.4763 2.83733 95.4123 3.136C95.3483 3.43467 95.2096 3.70133 94.9963 3.936C94.8043 4.14933 94.5483 4.26667 94.2283 4.288L93.7803 4.32C92.5643 4.40533 91.6789 4.71467 91.1243 5.248C90.5696 5.78133 90.2923 6.592 90.2923 7.68V8.864L89.7803 8.352H93.0123C93.5243 8.352 93.9189 8.48 94.1963 8.736C94.4736 8.992 94.6123 9.36533 94.6123 9.856C94.6123 10.3253 94.4736 10.6987 94.1963 10.976C93.9189 11.232 93.5243 11.36 93.0123 11.36H90.2923V22.208C90.2923 23.5733 89.6309 24.256 88.3083 24.256ZM103.186 24.32C101.799 24.32 100.636 24.0853 99.6975 23.616C98.7802 23.1467 98.0975 22.464 97.6495 21.568C97.2015 20.6507 96.9775 19.52 96.9775 18.176V11.36H95.3135C94.8015 11.36 94.4068 11.232 94.1295 10.976C93.8522 10.6987 93.7135 10.3253 93.7135 9.856C93.7135 9.36533 93.8522 8.992 94.1295 8.736C94.4068 8.48 94.8015 8.352 95.3135 8.352H96.9775V5.44C96.9775 4.77867 97.1482 4.27733 97.4895 3.936C97.8522 3.59467 98.3535 3.424 98.9935 3.424C99.6335 3.424 100.124 3.59467 100.466 3.936C100.807 4.27733 100.978 4.77867 100.978 5.44V8.352H104.37C104.882 8.352 105.276 8.48 105.554 8.736C105.831 8.992 105.97 9.36533 105.97 9.856C105.97 10.3253 105.831 10.6987 105.554 10.976C105.276 11.232 104.882 11.36 104.37 11.36H100.978V17.952C100.978 18.976 101.202 19.744 101.65 20.256C102.098 20.768 102.823 21.024 103.826 21.024C104.188 21.024 104.508 20.992 104.786 20.928C105.063 20.864 105.308 20.8213 105.522 20.8C105.778 20.7787 105.991 20.864 106.162 21.056C106.332 21.2267 106.418 21.5893 106.418 22.144C106.418 22.5707 106.343 22.9547 106.194 23.296C106.066 23.616 105.82 23.84 105.458 23.968C105.18 24.0533 104.818 24.128 104.37 24.192C103.922 24.2773 103.527 24.32 103.186 24.32ZM2.27838 53C1.61704 53 1.10504 52.8187 0.742375 52.456C0.379709 52.072 0.198375 51.5493 0.198375 50.888V32.424C0.198375 31.7413 0.369042 31.2293 0.710375 30.888C1.07304 30.5253 1.58504 30.344 2.24638 30.344C2.90771 30.344 3.40904 30.5253 3.75038 30.888C4.11304 31.2293 4.29438 31.7413 4.29438 32.424V49.512H13.5744C14.1504 49.512 14.5877 49.6613 14.8864 49.96C15.2064 50.2587 15.3664 50.6853 15.3664 51.24C15.3664 51.7947 15.2064 52.232 14.8864 52.552C14.5877 52.8507 14.1504 53 13.5744 53H2.27838ZM24.7629 53.32C23.1415 53.32 21.7335 52.9893 20.5389 52.328C19.3442 51.6667 18.4162 50.728 17.7549 49.512C17.0935 48.2747 16.7629 46.824 16.7629 45.16C16.7629 43.9013 16.9442 42.7813 17.3069 41.8C17.6909 40.7973 18.2349 39.944 18.9389 39.24C19.6429 38.5147 20.4855 37.9707 21.4669 37.608C22.4482 37.224 23.5469 37.032 24.7629 37.032C26.3842 37.032 27.7922 37.3627 28.9869 38.024C30.1815 38.6853 31.1095 39.624 31.7709 40.84C32.4322 42.056 32.7629 43.496 32.7629 45.16C32.7629 46.4187 32.5709 47.5493 32.1869 48.552C31.8242 49.5547 31.2909 50.4187 30.5869 51.144C29.8829 51.848 29.0402 52.392 28.0589 52.776C27.0775 53.1387 25.9789 53.32 24.7629 53.32ZM24.7629 50.28C25.5522 50.28 26.2455 50.088 26.8429 49.704C27.4402 49.32 27.8989 48.7547 28.2189 48.008C28.5602 47.24 28.7309 46.2907 28.7309 45.16C28.7309 43.4533 28.3682 42.184 27.6429 41.352C26.9175 40.4987 25.9575 40.072 24.7629 40.072C23.9735 40.072 23.2802 40.264 22.6829 40.648C22.0855 41.0107 21.6162 41.576 21.2749 42.344C20.9549 43.0907 20.7949 44.0293 20.7949 45.16C20.7949 46.8453 21.1575 48.1253 21.8829 49C22.6082 49.8533 23.5682 50.28 24.7629 50.28ZM43.3604 59.08C42.2084 59.08 41.0884 58.9733 40.0004 58.76C38.9337 58.5467 37.963 58.216 37.0884 57.768C36.683 57.5547 36.4057 57.2987 36.2564 57C36.1284 56.7013 36.0857 56.392 36.1284 56.072C36.1924 55.7733 36.3204 55.5067 36.5124 55.272C36.7257 55.0373 36.9817 54.8773 37.2804 54.792C37.579 54.7067 37.8884 54.7493 38.2084 54.92C39.147 55.3893 40.0324 55.688 40.8644 55.816C41.7177 55.9653 42.443 56.04 43.0404 56.04C44.4697 56.04 45.5364 55.688 46.2404 54.984C46.9657 54.3013 47.3284 53.2773 47.3284 51.912V49.032H47.6164C47.2964 50.12 46.6244 50.9947 45.6004 51.656C44.5977 52.296 43.4564 52.616 42.1764 52.616C40.7684 52.616 39.5417 52.296 38.4964 51.656C37.451 50.9947 36.6404 50.0773 36.0644 48.904C35.4884 47.7307 35.2004 46.3653 35.2004 44.808C35.2004 43.6347 35.3604 42.5787 35.6804 41.64C36.0217 40.68 36.491 39.8587 37.0884 39.176C37.707 38.4933 38.443 37.9707 39.2964 37.608C40.171 37.224 41.131 37.032 42.1764 37.032C43.499 37.032 44.651 37.3627 45.6324 38.024C46.635 38.664 47.2857 39.5173 47.5844 40.584L47.2644 41.384V39.112C47.2644 38.4507 47.435 37.9493 47.7764 37.608C48.139 37.2667 48.6297 37.096 49.2484 37.096C49.8884 37.096 50.379 37.2667 50.7204 37.608C51.0617 37.9493 51.2324 38.4507 51.2324 39.112V51.432C51.2324 53.9707 50.5604 55.88 49.2164 57.16C47.8724 58.44 45.9204 59.08 43.3604 59.08ZM43.2644 49.576C44.0964 49.576 44.811 49.384 45.4084 49C46.0057 48.616 46.4644 48.072 46.7844 47.368C47.1257 46.6427 47.2964 45.7893 47.2964 44.808C47.2964 43.336 46.9337 42.184 46.2084 41.352C45.483 40.4987 44.5017 40.072 43.2644 40.072C42.4324 40.072 41.7177 40.264 41.1204 40.648C40.523 41.032 40.0537 41.576 39.7124 42.28C39.3924 42.984 39.2324 43.8267 39.2324 44.808C39.2324 46.28 39.595 47.4427 40.3204 48.296C41.0457 49.1493 42.027 49.576 43.2644 49.576ZM57.3609 53.224C56.7209 53.224 56.2302 53.032 55.8889 52.648C55.5475 52.264 55.3769 51.7307 55.3769 51.048V39.304C55.3769 38.6 55.5475 38.0667 55.8889 37.704C56.2302 37.32 56.7209 37.128 57.3609 37.128C58.0009 37.128 58.4915 37.32 58.8329 37.704C59.1955 38.0667 59.3769 38.6 59.3769 39.304V51.048C59.3769 51.7307 59.2062 52.264 58.8649 52.648C58.5235 53.032 58.0222 53.224 57.3609 53.224ZM57.3609 34.152C56.6142 34.152 56.0275 33.9707 55.6009 33.608C55.1955 33.224 54.9929 32.7013 54.9929 32.04C54.9929 31.3573 55.1955 30.8347 55.6009 30.472C56.0275 30.1093 56.6142 29.928 57.3609 29.928C58.1289 29.928 58.7155 30.1093 59.1209 30.472C59.5262 30.8347 59.7289 31.3573 59.7289 32.04C59.7289 32.7013 59.5262 33.224 59.1209 33.608C58.7155 33.9707 58.1289 34.152 57.3609 34.152ZM69.2611 53.32C68.3438 53.32 67.3731 53.224 66.3491 53.032C65.3251 52.84 64.4078 52.5093 63.5971 52.04C63.2558 51.8267 63.0105 51.5813 62.8611 51.304C62.7331 51.0053 62.6798 50.7173 62.7011 50.44C62.7438 50.1413 62.8505 49.8853 63.0211 49.672C63.2131 49.4587 63.4478 49.32 63.7251 49.256C64.0238 49.192 64.3438 49.2453 64.6851 49.416C65.5385 49.8213 66.3385 50.1093 67.0851 50.28C67.8318 50.4293 68.5678 50.504 69.2931 50.504C70.3171 50.504 71.0745 50.3333 71.5651 49.992C72.0771 49.6293 72.3331 49.16 72.3331 48.584C72.3331 48.0933 72.1625 47.72 71.8211 47.464C71.5011 47.1867 71.0105 46.984 70.3491 46.856L67.1491 46.248C65.8265 45.992 64.8131 45.512 64.1091 44.808C63.4265 44.0827 63.0851 43.1547 63.0851 42.024C63.0851 41 63.3625 40.1147 63.9171 39.368C64.4931 38.6213 65.2825 38.0453 66.2851 37.64C67.2878 37.2347 68.4398 37.032 69.7411 37.032C70.6798 37.032 71.5545 37.1387 72.3651 37.352C73.1971 37.544 73.9971 37.8533 74.7651 38.28C75.0851 38.4507 75.2985 38.6747 75.4051 38.952C75.5331 39.2293 75.5651 39.5173 75.5011 39.816C75.4371 40.0933 75.3091 40.3493 75.1171 40.584C74.9251 40.7973 74.6798 40.936 74.3811 41C74.1038 41.0427 73.7838 40.9787 73.4211 40.808C72.7598 40.4667 72.1198 40.2213 71.5011 40.072C70.9038 39.9227 70.3278 39.848 69.7731 39.848C68.7278 39.848 67.9491 40.0293 67.4371 40.392C66.9465 40.7547 66.7011 41.2347 66.7011 41.832C66.7011 42.28 66.8505 42.6533 67.1491 42.952C67.4478 43.2507 67.9065 43.4533 68.5251 43.56L71.7251 44.168C73.1118 44.424 74.1571 44.8933 74.8611 45.576C75.5865 46.2587 75.9491 47.176 75.9491 48.328C75.9491 49.8853 75.3411 51.112 74.1251 52.008C72.9091 52.8827 71.2878 53.32 69.2611 53.32ZM86.1699 53.32C84.7832 53.32 83.6205 53.0853 82.6819 52.616C81.7645 52.1467 81.0819 51.464 80.6339 50.568C80.1859 49.6507 79.9619 48.52 79.9619 47.176V40.36H78.2979C77.7859 40.36 77.3912 40.232 77.1139 39.976C76.8365 39.6987 76.6979 39.3253 76.6979 38.856C76.6979 38.3653 76.8365 37.992 77.1139 37.736C77.3912 37.48 77.7859 37.352 78.2979 37.352H79.9619V34.44C79.9619 33.7787 80.1325 33.2773 80.4739 32.936C80.8365 32.5947 81.3379 32.424 81.9779 32.424C82.6179 32.424 83.1085 32.5947 83.4499 32.936C83.7912 33.2773 83.9619 33.7787 83.9619 34.44V37.352H87.3539C87.8659 37.352 88.2605 37.48 88.5379 37.736C88.8152 37.992 88.9539 38.3653 88.9539 38.856C88.9539 39.3253 88.8152 39.6987 88.5379 39.976C88.2605 40.232 87.8659 40.36 87.3539 40.36H83.9619V46.952C83.9619 47.976 84.1859 48.744 84.6339 49.256C85.0819 49.768 85.8072 50.024 86.8099 50.024C87.1725 50.024 87.4925 49.992 87.7699 49.928C88.0472 49.864 88.2925 49.8213 88.5059 49.8C88.7619 49.7787 88.9752 49.864 89.1459 50.056C89.3165 50.2267 89.4019 50.5893 89.4019 51.144C89.4019 51.5707 89.3272 51.9547 89.1779 52.296C89.0499 52.616 88.8045 52.84 88.4419 52.968C88.1645 53.0533 87.8019 53.128 87.3539 53.192C86.9059 53.2773 86.5112 53.32 86.1699 53.32ZM93.6734 53.224C93.0334 53.224 92.5427 53.032 92.2014 52.648C91.86 52.264 91.6894 51.7307 91.6894 51.048V39.304C91.6894 38.6 91.86 38.0667 92.2014 37.704C92.5427 37.32 93.0334 37.128 93.6734 37.128C94.3134 37.128 94.804 37.32 95.1454 37.704C95.508 38.0667 95.6894 38.6 95.6894 39.304V51.048C95.6894 51.7307 95.5187 52.264 95.1774 52.648C94.836 53.032 94.3347 53.224 93.6734 53.224ZM93.6734 34.152C92.9267 34.152 92.34 33.9707 91.9134 33.608C91.508 33.224 91.3054 32.7013 91.3054 32.04C91.3054 31.3573 91.508 30.8347 91.9134 30.472C92.34 30.1093 92.9267 29.928 93.6734 29.928C94.4414 29.928 95.028 30.1093 95.4334 30.472C95.8387 30.8347 96.0414 31.3573 96.0414 32.04C96.0414 32.7013 95.8387 33.224 95.4334 33.608C95.028 33.9707 94.4414 34.152 93.6734 34.152ZM107.078 53.32C105.435 53.32 104.006 52.9893 102.79 52.328C101.574 51.6453 100.635 50.6853 99.9736 49.448C99.3123 48.2107 98.9816 46.76 98.9816 45.096C98.9816 43.8373 99.163 42.7173 99.5256 41.736C99.9096 40.7333 100.454 39.8907 101.158 39.208C101.862 38.504 102.715 37.9707 103.718 37.608C104.72 37.224 105.84 37.032 107.078 37.032C107.782 37.032 108.539 37.128 109.35 37.32C110.182 37.512 110.96 37.832 111.686 38.28C112.027 38.4933 112.251 38.7493 112.358 39.048C112.464 39.3467 112.486 39.656 112.422 39.976C112.358 40.2747 112.219 40.5413 112.006 40.776C111.814 40.9893 111.568 41.128 111.27 41.192C110.971 41.2347 110.64 41.16 110.278 40.968C109.808 40.6907 109.328 40.488 108.838 40.36C108.347 40.2107 107.878 40.136 107.43 40.136C106.726 40.136 106.107 40.2533 105.574 40.488C105.04 40.7013 104.582 41.0213 104.198 41.448C103.835 41.8533 103.558 42.3653 103.366 42.984C103.174 43.6027 103.078 44.3173 103.078 45.128C103.078 46.7067 103.451 47.9547 104.198 48.872C104.966 49.768 106.043 50.216 107.43 50.216C107.878 50.216 108.336 50.152 108.806 50.024C109.296 49.896 109.787 49.6933 110.278 49.416C110.64 49.224 110.96 49.16 111.238 49.224C111.536 49.288 111.782 49.4373 111.974 49.672C112.166 49.8853 112.283 50.152 112.326 50.472C112.368 50.7707 112.326 51.0693 112.198 51.368C112.091 51.6667 111.878 51.912 111.558 52.104C110.854 52.5307 110.107 52.84 109.318 53.032C108.528 53.224 107.782 53.32 107.078 53.32ZM120.667 53.32C119.75 53.32 118.779 53.224 117.755 53.032C116.731 52.84 115.814 52.5093 115.003 52.04C114.662 51.8267 114.417 51.5813 114.267 51.304C114.139 51.0053 114.086 50.7173 114.107 50.44C114.15 50.1413 114.257 49.8853 114.427 49.672C114.619 49.4587 114.854 49.32 115.131 49.256C115.43 49.192 115.75 49.2453 116.091 49.416C116.945 49.8213 117.745 50.1093 118.491 50.28C119.238 50.4293 119.974 50.504 120.699 50.504C121.723 50.504 122.481 50.3333 122.971 49.992C123.483 49.6293 123.739 49.16 123.739 48.584C123.739 48.0933 123.569 47.72 123.227 47.464C122.907 47.1867 122.417 46.984 121.755 46.856L118.555 46.248C117.233 45.992 116.219 45.512 115.515 44.808C114.833 44.0827 114.491 43.1547 114.491 42.024C114.491 41 114.769 40.1147 115.323 39.368C115.899 38.6213 116.689 38.0453 117.691 37.64C118.694 37.2347 119.846 37.032 121.147 37.032C122.086 37.032 122.961 37.1387 123.771 37.352C124.603 37.544 125.403 37.8533 126.171 38.28C126.491 38.4507 126.705 38.6747 126.811 38.952C126.939 39.2293 126.971 39.5173 126.907 39.816C126.843 40.0933 126.715 40.3493 126.523 40.584C126.331 40.7973 126.086 40.936 125.787 41C125.51 41.0427 125.19 40.9787 124.827 40.808C124.166 40.4667 123.526 40.2213 122.907 40.072C122.31 39.9227 121.734 39.848 121.179 39.848C120.134 39.848 119.355 40.0293 118.843 40.392C118.353 40.7547 118.107 41.2347 118.107 41.832C118.107 42.28 118.257 42.6533 118.555 42.952C118.854 43.2507 119.313 43.4533 119.931 43.56L123.131 44.168C124.518 44.424 125.563 44.8933 126.267 45.576C126.993 46.2587 127.355 47.176 127.355 48.328C127.355 49.8853 126.747 51.112 125.531 52.008C124.315 52.8827 122.694 53.32 120.667 53.32Z" fill="white"/>
<path d="M132.328 53.16C131.603 53.16 131.016 52.936 130.568 52.488C130.141 52.04 129.928 51.464 129.928 50.76C129.928 50.0773 130.141 49.5227 130.568 49.096C131.016 48.648 131.603 48.424 132.328 48.424C133.075 48.424 133.651 48.648 134.056 49.096C134.483 49.5227 134.696 50.0773 134.696 50.76C134.696 51.464 134.483 52.04 134.056 52.488C133.651 52.936 133.075 53.16 132.328 53.16Z" fill="#127AFF"/>
</svg>
